<svg xmlns="http://www.w3.org/2000/svg" width="32" height="32" version="1.0"><defs><radialGradient id="b" cx="16.16" cy="15.84" r="16.16" fx="16.16" fy="15.84" gradientTransform="matrix(0.94814567,0,0,0.94814567,0.6779661,0.98137242)" gradientUnits="userSpaceOnUse" href="#a"/><linearGradient id="a"><stop offset="0" stop-color="#fff" stop-opacity="1"/><stop offset=".5" stop-color="#b5d9fd" stop-opacity="1"/><stop offset="1" stop-color="#ca18b3" stop-opacity=".99"/></linearGradient></defs><circle cx="16" cy="16" r="15.322" fill="url(#b)" fill-opacity="1" fill-rule="evenodd" opacity="1"/><path id="c" fill="#103aff" fill-opacity="1" fill-rule="evenodd" stroke="none" stroke-dasharray="none" stroke-dashoffset="0" stroke-linecap="round" stroke-linejoin="miter" stroke-miterlimit="4" stroke-opacity="1" stroke-width=".5" d="m 15.322034,0.94915398 1.355932,0 -0.563288,15.05084702 0.563288,15.050847 -1.355932,0 0.563288,-15.050847 z" opacity="1"/><use id="e" width="100%" height="100%" x="0" y="0" stroke="none" href="#c" transform="matrix(0.45646428,0.88974174,-0.88974174,0.45646428,22.932439,-5.5392964)"/><use width="100%" height="100%" x="0" y="0" href="#e" transform="matrix(0.46532644,0.88513914,-0.88513914,0.46532644,22.717003,-5.6074493)"/><use id="f" width="100%" height="100%" x="0" y="0" stroke="none" href="#c" transform="matrix(0.67219758,0.38809346,-0.38809346,0.67219758,11.454333,-0.96465681)"/><use id="g" width="100%" height="100%" x="0" y="0" href="#f" transform="matrix(0.5,0.8660254,-0.8660254,0.5,21.856406,-5.8564058)"/><use width="100%" height="100%" x="0" y="0" href="#g" transform="matrix(0.42910577,0.90325425,-0.90325425,0.42910577,23.586375,-5.31776)"/><circle cx="16.16" cy="15.84" r="5.522" fill="#eb19c3" fill-opacity="1" fill-rule="evenodd" stroke="#fff" stroke-dasharray="none" stroke-dashoffset="0" stroke-linecap="round" stroke-linejoin="miter" stroke-miterlimit="4" stroke-opacity="1" stroke-width="1" opacity="1"/></svg>